<?xml version="1.0" encoding="UTF-8"?>
<svg id="Layer_2" data-name="Layer 2" xmlns="http://www.w3.org/2000/svg" viewBox="0 0 743.29 151.53">
  <defs>
    <style>
      .cls-1 {
        fill: #1e3c6e;
      }

      .cls-2 {
        fill: #f1ae28;
      }
    </style>
  </defs>
  <g id="Layer_1-2" data-name="Layer 1">
    <g>
      <g>
        <path class="cls-1" d="M262.59,17.2c-2.97-5.43-7.21-9.7-12.6-12.71-5.37-2.97-11.7-4.5-18.83-4.5s-13.48,1.52-18.83,4.5c-5.39,3-9.63,7.27-12.6,12.71-2.96,5.4-4.47,11.8-4.47,19.02v26.68c0,7.18,1.51,13.57,4.47,18.98,2.97,5.46,7.21,9.75,12.6,12.74,5.36,2.99,11.7,4.5,18.83,4.5s13.48-1.51,18.83-4.5c5.39-2.99,9.63-7.27,12.6-12.74,2.96-5.42,4.45-11.8,4.45-18.98v-26.68c0-7.21-1.49-13.61-4.45-19.02ZM231.15,78.37c-4.45,0-7.91-1.34-10.55-4.07-2.66-2.76-3.94-6.34-3.94-10.94v-27.59c0-4.63,1.28-8.22,3.94-10.96,2.64-2.72,6.1-4.04,10.55-4.04s7.89,1.33,10.53,4.04c2.66,2.73,3.95,6.32,3.95,10.96v27.59c0,4.6-1.3,8.18-3.95,10.94-2.64,2.73-6.08,4.07-10.53,4.07Z"/>
        <path class="cls-1" d="M342.95,17.2c-2.97-5.43-7.21-9.7-12.6-12.71-5.36-2.97-11.7-4.5-18.83-4.5s-13.48,1.52-18.83,4.5c-5.39,3-9.63,7.27-12.6,12.71-2.96,5.4-4.45,11.8-4.45,19.02v26.68c0,7.18,1.49,13.57,4.45,18.98,2.97,5.46,7.21,9.75,12.6,12.74,5.36,2.99,11.7,4.5,18.83,4.5s13.48-1.51,18.83-4.5c5.39-2.99,9.63-7.27,12.6-12.74,2.96-5.42,4.47-11.8,4.47-18.98v-26.68c0-7.21-1.51-13.61-4.47-19.02ZM311.51,78.37c-4.45,0-7.89-1.34-10.53-4.07-2.66-2.76-3.95-6.34-3.95-10.94v-27.59c0-4.63,1.3-8.22,3.95-10.96,2.64-2.72,6.08-4.04,10.53-4.04s7.91,1.33,10.55,4.04c2.66,2.73,3.94,6.32,3.94,10.96v27.59c0,4.6-1.28,8.18-3.95,10.94-2.63,2.73-6.08,4.07-10.53,4.07Z"/>
        <path class="cls-1" d="M427.94,21.35c-1.71-4.35-4.26-8.07-7.62-11.15-6.72-6.11-16.28-9.22-28.43-9.22h-32.66v97.17h32.58c8.44,0,15.6-1.48,21.32-4.41,5.75-2.94,10.14-7.14,13.04-12.47,2.87-5.27,4.32-11.45,4.32-18.38v-26.68c0-5.55-.86-10.52-2.55-14.86ZM409.09,63.43c0,4.68-1.4,8.19-4.29,10.75-2.9,2.57-7.11,3.86-12.54,3.86h-12.28V21.1h12.28c5.43,0,9.64,1.28,12.54,3.82,2.88,2.55,4.29,6.08,4.29,10.79v27.72Z"/>
        <polygon class="cls-1" points="497.39 78.04 497.39 98.15 433.25 98.15 433.25 80.27 470.74 21.1 434.42 21.1 434.42 .98 496.1 .98 496.1 18.85 458.61 78.04 497.39 78.04"/>
        <path class="cls-1" d="M570.72,17.2c-2.97-5.43-7.21-9.7-12.6-12.71-5.37-2.97-11.71-4.5-18.83-4.5s-13.48,1.52-18.85,4.5c-5.37,3-9.61,7.27-12.6,12.71-2.96,5.4-4.45,11.8-4.45,19.02v26.68c0,7.18,1.49,13.57,4.45,18.98,2.97,5.46,7.23,9.75,12.6,12.74,5.37,2.99,11.71,4.5,18.85,4.5s13.46-1.51,18.83-4.5c5.39-2.99,9.63-7.27,12.6-12.74,2.96-5.42,4.45-11.8,4.45-18.98v-26.68c0-7.21-1.49-13.61-4.45-19.02ZM539.29,78.37c-4.45,0-7.91-1.34-10.55-4.07-2.66-2.76-3.94-6.34-3.94-10.94v-27.59c0-4.63,1.28-8.22,3.94-10.96,2.64-2.72,6.1-4.04,10.55-4.04s7.89,1.33,10.53,4.04c2.66,2.73,3.94,6.32,3.94,10.96v27.59c0,4.6-1.28,8.18-3.94,10.94-2.64,2.73-6.1,4.07-10.53,4.07Z"/>
        <polygon class="cls-1" points="662.14 .98 662.14 98.09 637.88 98.09 606.97 35.19 606.97 98.09 586.99 98.09 586.99 .98 611.15 .98 642.16 64.86 642.16 .98 662.14 .98"/>
        <polygon class="cls-1" points="697.96 21.1 697.96 39.83 736.17 39.83 736.17 59.94 697.96 59.94 697.96 78.04 743.29 78.04 743.29 98.15 677.21 98.15 677.21 .98 743.29 .98 743.29 21.1 697.96 21.1"/>
      </g>
      <g>
        <g>
          <polygon class="cls-2" points="476.4 116.66 475.01 124.78 490.66 124.78 489.15 133.08 473.59 133.08 472.02 142.21 490.01 142.21 488.61 150.63 460.84 150.63 468.3 108.25 495.7 108.25 494.22 116.66 476.4 116.66"/>
          <polygon class="cls-2" points="522.87 129.54 531.67 150.63 521.4 150.63 515.96 136.94 505.75 150.63 494.86 150.63 511.55 128.8 503.32 108.25 513.57 108.25 518.51 121.08 527.91 108.25 538.83 108.25 522.87 129.54"/>
          <path class="cls-2" d="M563.15,108.25h-15.05l-7.44,42.38h9.64l2.41-13.61h6.32c12.19,0,18.38-5.98,18.38-17.76,0-7.41-4.66-11-14.28-11ZM559.6,128.61h-5.45l2.11-11.95h6.26c4.45,0,5.3,1.24,5.3,3.5,0,3.85-1.43,8.45-8.22,8.45Z"/>
          <path class="cls-2" d="M619.99,118.81c0-7.11-4.63-10.56-14.16-10.56h-15.27l-7.46,42.38h9.64l2.7-15.29h6.02l5.92,15.29h10.55l-7.09-16.89c5.92-2.23,9.15-7.47,9.15-14.93ZM598.72,116.66h6.28c4.45,0,5.3,1.07,5.3,3.05,0,4.86-2.72,7.32-8.06,7.32h-5.34l1.83-10.37Z"/>
          <polygon class="cls-2" points="642.71 116.66 641.32 124.78 656.97 124.78 655.46 133.08 639.9 133.08 638.33 142.21 656.32 142.21 654.92 150.63 627.16 150.63 634.6 108.25 662.02 108.25 660.53 116.66 642.71 116.66"/>
          <path class="cls-2" d="M700.02,117.97c0,.95-.08,1.81-.26,2.63l-.26,1.19h-9.49l.33-1.78c.09-.57.14-.98.14-1.37,0-1.51-.32-2.87-4.29-2.87-4.3,0-6.87,1.96-6.87,5.24,0,1.54,1.24,2.11,5.07,3.5l.57.2c5.67,1.78,12.8,4.03,12.8,11.88,0,9.22-6.87,14.96-17.93,14.96-8.9,0-14.22-4.12-14.22-11.02,0-.98.09-1.84.26-2.72l.24-1.21h9.51l-.32,1.77c-.09.53-.15,1.01-.15,1.43,0,1.16,0,3.32,5.19,3.32,3.76,0,7.77-1.52,7.77-5.8,0-1.93-1.92-2.9-6.47-4.48-6.29-1.96-11.97-4.29-11.97-11.15,0-8.71,6.59-14.34,16.8-14.34,8.48,0,13.54,3.97,13.54,10.62Z"/>
          <path class="cls-2" d="M740.86,117.97c0,.95-.08,1.81-.26,2.63l-.26,1.19h-9.49l.32-1.8c.11-.54.15-.95.15-1.36,0-1.51-.33-2.87-4.29-2.87-3.32,0-6.87,1.37-6.87,5.24,0,1.54,1.24,2.11,5.07,3.5l.57.2c5.67,1.78,12.8,4.03,12.8,11.88,0,9.22-6.87,14.96-17.93,14.96-8.9,0-14.22-4.12-14.22-11.02,0-.98.08-1.84.26-2.72l.24-1.21h9.51l-.32,1.77c-.11.53-.15,1.01-.15,1.43,0,1.16,0,3.32,5.19,3.32,3.76,0,7.76-1.52,7.76-5.8,0-1.93-1.9-2.9-6.46-4.48-6.29-1.96-11.98-4.29-11.98-11.15,0-8.71,6.59-14.34,16.81-14.34,8.48,0,13.54,3.97,13.54,10.62Z"/>
        </g>
        <g>
          <path class="cls-2" d="M185.66,1.28l-15.44,30.6h-88.92c-7.1,0-13.59,4.02-16.78,10.36l-14.52,29.05H15.78l19.71-39.41,6.42-12.82C47.36,8.17,58.48,1.28,70.67,1.28h114.99Z"/>
          <path class="cls-1" d="M154.26,63.82l-15.31,30.61-12.88,25.76-15.31,30.6H39.54c-26.5,0-48.94-24.34-35.54-55.91l6.56-13.13h34.21l-8.98,17.97c-4.71,9.41,2.13,20.48,12.66,20.48h43.4l12.88-25.76h-34.34l15.31-30.61h68.56Z"/>
        </g>
        <g>
          <polygon class="cls-2" points="460.58 108.34 459.61 113.64 264.13 111.04 460.58 108.34"/>
          <polygon class="cls-2" points="457.11 127.27 456.12 132.58 332.6 129.98 457.11 127.27"/>
          <polygon class="cls-2" points="453.82 145.09 452.83 150.39 381.5 147.82 453.82 145.09"/>
        </g>
      </g>
    </g>
  </g>
</svg>